<svg viewBox="0 0 300 88.6077" width="5000px" height="1476.7949422200522px" xmlns="http://www.w3.org/2000/svg" xmlns:xlink="http://www.w3.org/1999/xlink" preserveAspectRatio="none"><defs></defs><style>.companyName {fill:#285A84;fill-opacity:1;}.icon1 {fill:#85C872;fill-opacity:1;}.icon2 {fill:#C2EF7E;fill-opacity:1;}.shapeStroke-str {stroke:#285A84;stroke-opacity:1;}</style><g opacity="1" transform="rotate(0 0 83.77120000000002)">
<svg width="300" height="4.8365" x="0" y="83.77120000000002" version="1.1" preserveAspectRatio="none" viewBox="0 0 300 4.8365">
  <rect x="0" y="0" width="300" height="4.8365" class="icon2 shapeStroke-str" style="stroke-width:0;" rx="4%" ry="4%"></rect>
</svg>
</g><g opacity="1" transform="rotate(0 0 0)">
<svg width="300" height="64.4861" x="0" y="0" version="1.1" preserveAspectRatio="none" viewBox="1.4 -29.96 141.23999999999998 30.360000000000003">
  <g transform="matrix(1 0 0 1 0 0)" class="companyName"><path d="M12.44 0.40Q9.20 0.40 6.18-0.52Q3.16-1.44 1.40-2.96L1.40-2.96L3.20-7Q4.92-5.64 7.42-4.78Q9.92-3.92 12.44-3.92L12.44-3.92Q15.56-3.92 17.10-4.92Q18.64-5.92 18.64-7.56L18.64-7.56Q18.64-8.76 17.78-9.54Q16.92-10.32 15.60-10.76Q14.28-11.20 12-11.76L12-11.76Q8.80-12.52 6.82-13.28Q4.84-14.04 3.42-15.66Q2-17.28 2-20.04L2-20.04Q2-22.36 3.26-24.26Q4.52-26.16 7.06-27.28Q9.60-28.40 13.28-28.40L13.28-28.40Q15.84-28.40 18.32-27.76Q20.80-27.12 22.60-25.92L22.60-25.92L20.96-21.88Q19.12-22.96 17.12-23.52Q15.12-24.08 13.24-24.08L13.24-24.08Q10.16-24.08 8.66-23.04Q7.16-22 7.16-20.28L7.16-20.28Q7.16-19.08 8.02-18.32Q8.88-17.56 10.20-17.12Q11.52-16.68 13.80-16.12L13.80-16.12Q16.92-15.40 18.92-14.62Q20.92-13.84 22.34-12.24Q23.76-10.64 23.76-7.92L23.76-7.92Q23.76-5.60 22.50-3.72Q21.24-1.84 18.68-0.72Q16.12 0.40 12.44 0.40L12.44 0.40Z M38.04 0.28Q34.80 0.28 32.20-1.12Q29.60-2.52 28.14-5.02Q26.68-7.52 26.68-10.68L26.68-10.68Q26.68-13.84 28.14-16.32Q29.60-18.80 32.20-20.20Q34.80-21.60 38.04-21.60L38.04-21.60Q41.32-21.60 43.92-20.20Q46.52-18.80 47.98-16.32Q49.44-13.84 49.44-10.68L49.44-10.68Q49.44-7.52 47.98-5.02Q46.52-2.52 43.92-1.12Q41.32 0.28 38.04 0.28L38.04 0.28ZM38.04-4Q40.80-4 42.60-5.84Q44.40-7.68 44.40-10.68L44.40-10.68Q44.40-13.68 42.60-15.52Q40.80-17.36 38.04-17.36L38.04-17.36Q35.28-17.36 33.50-15.52Q31.72-13.68 31.72-10.68L31.72-10.68Q31.72-7.68 33.50-5.84Q35.28-4 38.04-4L38.04-4Z M62.28-25.92Q59.12-25.92 59.12-22.48L59.12-22.48L59.12-21.20L65-21.20L65-17.20L59.24-17.20L59.24 0L54.24 0L54.24-22.56Q54.24-25.96 56.24-27.96Q58.24-29.96 61.92-29.96L61.92-29.96Q64.76-29.96 66.40-28.80L66.40-28.80L65-25.04Q63.80-25.92 62.28-25.92L62.28-25.92Z M78.96-4.72L80.36-1.16Q79.48-0.44 78.22-0.08Q76.96 0.28 75.56 0.28L75.56 0.28Q72.04 0.28 70.12-1.56Q68.20-3.40 68.20-6.92L68.20-6.92L68.20-26.08L73.20-26.08L73.20-21.20L78.92-21.20L78.92-17.20L73.20-17.20L73.20-7.04Q73.20-5.48 73.98-4.66Q74.76-3.84 76.16-3.84L76.16-3.84Q77.84-3.84 78.96-4.72L78.96-4.72Z M93.92-3.96Q97.40-3.96 99.72-6.28L99.72-6.28L102.36-3.20Q100.96-1.48 98.76-0.60Q96.56 0.28 93.80 0.28L93.80 0.28Q90.28 0.28 87.60-1.12Q84.92-2.52 83.46-5.02Q82-7.52 82-10.68L82-10.68Q82-13.80 83.42-16.30Q84.84-18.80 87.34-20.20Q89.84-21.60 93-21.60L93-21.60Q96-21.60 98.46-20.30Q100.92-19 102.36-16.58Q103.80-14.16 103.80-10.92L103.80-10.92L87.44-7.72Q88.20-5.88 89.88-4.92Q91.56-3.96 93.92-3.96L93.92-3.96ZM93-17.60Q90.24-17.60 88.54-15.80Q86.84-14 86.84-10.96L86.84-10.96L86.84-10.92L98.92-13.24Q98.40-15.20 96.82-16.40Q95.24-17.60 93-17.60L93-17.60Z M115.64 0.28Q112.32 0.28 110.46-1.54Q108.60-3.36 108.60-6.68L108.60-6.68L108.60-29.68L113.60-29.68L113.60-7.04Q113.60-3.84 116.60-3.84L116.60-3.84Q117.60-3.84 118.40-4.24L118.40-4.24L118.64-0.24Q117.24 0.28 115.64 0.28L115.64 0.28Z M131.24 0.28Q128 0.28 125.40-1.12Q122.80-2.52 121.34-5.02Q119.88-7.52 119.88-10.68L119.88-10.68Q119.88-13.84 121.34-16.32Q122.80-18.80 125.40-20.20Q128-21.60 131.24-21.60L131.24-21.60Q134.52-21.60 137.12-20.20Q139.72-18.80 141.18-16.32Q142.64-13.84 142.64-10.68L142.64-10.68Q142.64-7.52 141.18-5.02Q139.72-2.52 137.12-1.12Q134.52 0.28 131.24 0.28L131.24 0.28ZM131.24-4Q134-4 135.80-5.84Q137.60-7.68 137.60-10.68L137.60-10.68Q137.60-13.68 135.80-15.52Q134-17.36 131.24-17.36L131.24-17.36Q128.48-17.36 126.70-15.52Q124.92-13.68 124.92-10.68L124.92-10.68Q124.92-7.68 126.70-5.84Q128.48-4 131.24-4L131.24-4Z"></path></g>
</svg>
</g><g opacity="1" transform="rotate(0 0 83.77120000000002)">
<svg width="66" height="4.8365" x="0" y="83.77120000000002" version="1.1" preserveAspectRatio="none" viewBox="0 0 66 4.8365">
  <rect x="0" y="0" width="66" height="4.8365" class="icon1 shapeStroke-str" style="stroke-width:0;" rx="0px" ry="0px"></rect>
</svg>
</g></svg>